<?xml version="1.0" encoding="UTF-8" standalone="no"?>
<svg
   xmlns:dc="http://purl.org/dc/elements/1.1/"
   xmlns:cc="http://creativecommons.org/ns#"
   xmlns:rdf="http://www.w3.org/1999/02/22-rdf-syntax-ns#"
   xmlns:svg="http://www.w3.org/2000/svg"
   xmlns="http://www.w3.org/2000/svg"
   xmlns:sodipodi="http://sodipodi.sourceforge.net/DTD/sodipodi-0.dtd"
   xmlns:inkscape="http://www.inkscape.org/namespaces/inkscape"
   id="svg2"
   version="1.1"
   viewBox="0 0 197.21155 197.21638"
   sodipodi:docname="logo.svg"
   width="197.21155"
   height="197.21638"
   inkscape:version="0.92.0 r15299">
  <metadata
     id="metadata3686">
    <rdf:RDF>
      <cc:Work
         rdf:about="">
        <dc:format>image/svg+xml</dc:format>
        <dc:type
           rdf:resource="http://purl.org/dc/dcmitype/StillImage" />
        <dc:title></dc:title>
      </cc:Work>
    </rdf:RDF>
  </metadata>
  <defs
     id="defs3684" />
  <sodipodi:namedview
     pagecolor="#ffffff"
     bordercolor="#666666"
     borderopacity="1"
     objecttolerance="10"
     gridtolerance="10"
     guidetolerance="10"
     inkscape:pageopacity="0"
     inkscape:pageshadow="2"
     inkscape:window-width="1920"
     inkscape:window-height="996"
     id="namedview3682"
     showgrid="false"
     fit-margin-top="0"
     fit-margin-left="0"
     fit-margin-right="0"
     fit-margin-bottom="0"
     inkscape:zoom="2.0966818"
     inkscape:cx="62.379819"
     inkscape:cy="79.476003"
     inkscape:window-x="-8"
     inkscape:window-y="-8"
     inkscape:window-maximized="1"
     inkscape:current-layer="svg2" />
  <path
     d="m 85.639184,196.34986 c -8.98123,-1.10864 -26.37065,-6.72944 -34,-10.98986 C 5.3202745,159.49442 -12.920616,103.30115 9.6507448,56.009515 35.258674,2.355669 103.14827,-16.573789 152.80625,16.093889 c 9.38469,6.173749 22.09904,18.888095 28.27279,28.272782 24.99997,38.002345 20.5737,88.354329 -10.7064,121.792849 -11.28666,12.06547 -24.35624,20.32658 -40.73346,25.74709 -15.42819,5.10639 -28.18874,6.39499 -43.999996,4.44325 z m 38.999996,-11.29283 c 15.41119,-5.00098 25.17271,-10.7626 36.3615,-21.46194 11.70973,-11.19749 18.92933,-22.87913 24.14107,-39.06134 2.17289,-6.7467 2.84123,-11.07839 3.2401,-21 0.69381,-17.257746 0.53639,-17.635282 -4.13864,-9.925231 -14.18515,23.394141 -35.33853,44.351601 -55.10403,54.593711 -13.43669,6.96263 -20.99782,8.83672 -35.499996,8.79897 -13.86683,-0.0361 -20.46689,-1.69669 -29.96055,-7.53821 l -4.95062,-3.04614 -9.55314,3.57807 c -5.25423,1.96794 -11.79922,4.09652 -14.54442,4.73019 -2.7452,0.63367 -4.99127,1.45101 -4.99127,1.81632 0,1.15794 13.31395,13.48867 18,16.67071 16.64977,11.30596 31.44785,15.43875 53.499996,14.94144 13.09158,-0.29524 16.08144,-0.68921 23.5,-3.09655 z m -15.06389,-40.11066 c 24.5486,-5.9367 53.58095,-31.17002 71.03294,-61.73794 l 5.10375,-8.939432 -1.67558,-5.117626 C 179.80634,56.231758 171.74636,43.74801 161.00068,33.472398 149.77427,22.737083 138.02714,15.903199 123.10324,11.425586 113.07832,8.417815 91.918094,7.695102 80.549574,9.972196 c -9.02888,1.808466 -20.57318,6.363847 -29.72893,11.731029 -7.32612,4.294636 -24.71735,21.68586 -29.01198,29.01198 -10.1557,17.324373 -13.6655195,31.384748 -12.9128292,51.728935 0.55535,15.01039 2.1565892,21.68909 8.4727692,35.3396 3.22555,6.97107 3.86775,7.75 6.38955,7.75 3.17959,0 17.452,-3.221 23.19236,-5.23405 l 3.81134,-1.33658 -3.16228,-3.96468 c -9.74195,-12.21388 -14.69959,-32.39019 -12.08115,-49.167051 4.49452,-28.797162 26.36933,-55.777779 51.44164,-63.448647 10.25576,-3.137749 22.140686,-2.373203 31.013976,1.9951 20.82199,10.250635 25.47632,36.131513 11.11579,61.810536 -9.52176,17.026522 -32.857026,39.632002 -52.200646,50.568142 -2.8875,1.63248 -5.25,3.31405 -5.25,3.73683 0,0.80005 5.95989,3.23154 12,4.89571 5.51806,1.52033 18.753026,1.29443 25.936106,-0.44268 z M 68.417704,131.63644 c 24.85553,-12.58662 49.568806,-37.101981 57.354776,-56.895433 1.80033,-4.576813 2.25706,-7.787016 2.30585,-16.207261 0.0532,-9.179719 -0.24448,-11.115491 -2.36739,-15.394909 -2.93145,-5.909281 -7.65775,-10.810081 -13.34832,-13.841145 -3.47734,-1.852196 -5.81707,-2.250871 -13.244467,-2.256775 -8.155809,-0.0065 -9.651259,0.303093 -15.592069,3.227744 -11.4838,5.653457 -20.43389,15.358172 -27.91171,30.265085 -10.8455,21.620318 -12.44987,42.106384 -4.58144,58.500004 2.86279,5.96452 9.76074,15.5 11.21269,15.5 0.24782,0 3.02526,-1.30379 6.17208,-2.89731 z"
     id="path3338"
     inkscape:connector-curvature="0" />
</svg>
